<?xml version="1.0" standalone="no"?>
<!DOCTYPE svg PUBLIC "-//W3C//DTD SVG 20010904//EN"
 "http://www.w3.org/TR/2001/REC-SVG-20010904/DTD/svg10.dtd">
<svg version="1.0" xmlns="http://www.w3.org/2000/svg"
 width="1280.000000pt" height="640.000000pt" viewBox="0 0 1280.000000 640.000000"
 preserveAspectRatio="xMidYMid meet">
<metadata>
Created by potrace 1.15, written by Peter Selinger 2001-2017
</metadata>
<g transform="translate(0.000000,640.000000) scale(0.100000,-0.100000)"
fill="#000000" stroke="none">
<path d="M8833 6041 c-74 -5 -107 -12 -121 -24 -10 -9 -24 -17 -31 -17 -24 0
-76 -43 -163 -134 -48 -50 -88 -99 -88 -108 0 -10 -4 -18 -9 -18 -5 0 -22 -26
-37 -57 -16 -32 -31 -60 -34 -63 -6 -5 -36 -68 -65 -135 -7 -16 -20 -46 -28
-65 -9 -19 -23 -57 -32 -85 -9 -27 -28 -73 -41 -102 -13 -28 -24 -59 -24 -67
0 -8 -4 -18 -10 -21 -5 -3 -10 -15 -10 -26 0 -10 -4 -19 -10 -19 -5 0 -10 -7
-10 -15 0 -9 -11 -33 -25 -55 -14 -22 -25 -45 -25 -52 0 -7 -9 -24 -20 -38
-11 -14 -20 -31 -20 -37 0 -7 -4 -13 -9 -13 -5 0 -14 -13 -20 -28 -7 -15 -23
-40 -36 -55 -14 -14 -25 -31 -25 -37 0 -20 -243 -269 -300 -309 -19 -13 -39
-30 -43 -37 -4 -8 -14 -14 -21 -14 -7 0 -21 -9 -31 -20 -10 -11 -27 -20 -37
-20 -10 0 -21 -7 -24 -15 -4 -8 -12 -15 -20 -15 -8 0 -31 -10 -52 -23 -35 -21
-57 -32 -127 -62 -71 -30 -205 -65 -251 -65 -28 0 -55 -5 -61 -11 -6 -6 -51
-13 -100 -16 -48 -2 -108 -9 -133 -14 -79 -18 -160 -44 -160 -51 0 -5 -7 -8
-15 -8 -8 0 -32 -18 -54 -40 -53 -54 -70 -124 -51 -208 7 -31 17 -61 22 -66 4
-6 8 -16 8 -23 0 -11 35 -70 58 -98 5 -6 13 -18 18 -28 6 -10 55 -64 110 -120
189 -195 247 -279 349 -502 15 -33 31 -68 36 -77 5 -10 9 -24 9 -32 0 -7 7
-19 15 -26 8 -7 15 -23 15 -36 0 -12 4 -25 9 -28 5 -3 12 -18 15 -32 4 -14 15
-45 25 -68 17 -40 27 -65 58 -156 9 -25 20 -52 24 -60 11 -18 11 -18 39 -105
55 -176 166 -349 265 -413 78 -52 168 -66 231 -36 37 18 74 62 74 88 0 9 5 16
10 16 6 0 10 -8 10 -18 0 -10 7 -27 15 -38 8 -10 15 -27 15 -36 0 -10 4 -18 9
-18 5 0 12 -11 15 -24 3 -14 26 -54 51 -91 25 -36 45 -68 45 -71 0 -25 241
-270 285 -291 16 -8 46 -23 65 -33 19 -11 44 -19 56 -20 12 0 35 -5 53 -11 21
-7 36 -8 44 -1 6 5 26 13 43 16 59 13 84 63 84 167 0 71 2 80 15 69 8 -7 15
-16 15 -21 0 -5 15 -31 33 -57 17 -26 37 -55 42 -63 48 -76 72 -106 92 -122
12 -10 23 -24 23 -31 0 -33 192 -186 234 -186 12 0 27 -5 33 -11 7 -7 44 -10
101 -8 l90 4 36 39 c35 39 36 41 36 125 1 97 -6 97 71 -9 75 -102 94 -125 159
-189 130 -128 266 -208 407 -241 91 -21 173 7 213 72 23 38 28 146 8 166 -8 8
-8 12 -1 12 6 0 46 -39 90 -87 103 -116 169 -180 218 -212 22 -14 47 -32 57
-40 30 -26 139 -82 204 -107 54 -20 83 -24 172 -24 90 0 112 3 140 20 40 25
71 89 72 148 0 23 3 42 8 42 4 0 29 -20 55 -45 55 -49 148 -107 251 -154 l70
-32 219 3 c216 3 219 3 238 27 10 13 19 33 19 46 0 13 8 33 18 45 l19 23 21
-21 c39 -39 173 -90 269 -102 35 -4 135 -4 224 -1 142 6 163 10 175 26 19 26
19 226 0 290 -10 31 -31 64 -63 97 -82 85 -184 183 -201 192 -9 5 -37 30 -64
56 -76 74 -112 106 -144 126 -16 10 -53 41 -81 68 -29 28 -72 63 -95 79 -71
47 -428 392 -543 525 -33 38 -76 90 -95 117 -19 26 -45 58 -57 72 -13 13 -23
27 -23 31 0 4 -21 37 -47 73 -27 36 -59 86 -72 112 -13 26 -28 47 -32 47 -5 0
-23 32 -40 70 -18 39 -36 70 -41 70 -4 0 -8 9 -8 19 0 10 -7 21 -15 25 -8 3
-15 11 -15 19 0 11 -27 69 -59 127 -5 8 -15 29 -22 45 -8 17 -23 46 -34 65
-12 19 -27 54 -35 78 -7 23 -19 47 -27 53 -7 6 -13 18 -13 25 0 8 -4 22 -10
32 -5 9 -16 35 -25 57 -9 22 -21 48 -26 57 -5 10 -9 27 -9 38 0 11 -7 23 -15
26 -8 4 -15 16 -15 28 0 12 -4 26 -8 32 -5 5 -17 32 -26 59 -10 28 -22 61 -28
75 -19 47 -40 95 -49 112 -5 10 -9 25 -9 33 0 8 -4 23 -10 33 -5 9 -16 35 -25
57 -21 50 -45 105 -56 127 -5 10 -9 24 -9 32 0 8 -6 27 -14 43 -8 15 -19 39
-24 53 -6 14 -16 41 -24 60 -8 19 -21 51 -28 70 -7 19 -19 42 -27 51 -7 8 -13
21 -13 28 0 6 -9 31 -20 53 -11 23 -20 47 -20 54 0 6 -7 17 -15 24 -8 7 -15
21 -15 31 0 11 -4 19 -10 19 -5 0 -10 6 -10 13 0 15 -86 186 -123 244 -15 24
-27 46 -27 49 0 4 -11 22 -25 40 -14 18 -25 40 -25 48 0 9 -4 16 -9 16 -5 0
-11 8 -15 18 -3 9 -17 35 -30 57 -14 22 -30 50 -35 63 -6 12 -15 22 -21 22 -5
0 -10 7 -10 15 0 20 -79 145 -91 145 -5 0 -9 7 -9 16 0 9 -10 29 -22 44 -21
24 -39 52 -101 152 -9 16 -28 41 -42 56 -14 15 -25 31 -25 36 0 5 -11 19 -24
31 -13 12 -25 27 -27 34 -11 33 -285 315 -344 354 -22 15 -57 39 -78 53 -56
37 -106 64 -119 64 -6 0 -20 8 -30 17 -15 14 -42 17 -136 19 -64 1 -163 -1
-219 -5z"/>
<path d="M3440 5909 c-19 -6 -39 -15 -44 -20 -6 -5 -16 -9 -23 -9 -15 0 -134
-81 -206 -141 -70 -59 -151 -142 -200 -209 -23 -30 -52 -65 -64 -78 -13 -13
-23 -26 -23 -30 0 -4 -12 -20 -26 -37 -14 -16 -35 -45 -46 -65 -12 -19 -25
-37 -28 -40 -6 -5 -86 -134 -110 -178 -8 -15 -17 -29 -20 -32 -11 -11 -39 -59
-96 -165 -32 -60 -75 -141 -95 -180 -74 -138 -168 -332 -221 -455 -11 -25 -25
-58 -32 -75 -7 -16 -18 -41 -24 -55 -5 -14 -19 -46 -31 -72 -12 -26 -21 -52
-21 -58 0 -5 -7 -26 -16 -47 -25 -58 -32 -75 -45 -118 -6 -22 -20 -62 -31 -90
-11 -27 -26 -70 -33 -95 -15 -55 -35 -109 -46 -132 -5 -10 -9 -26 -9 -36 0
-10 -4 -22 -8 -28 -5 -5 -14 -29 -21 -54 -7 -25 -18 -56 -23 -70 -20 -46 -100
-274 -112 -317 -7 -24 -17 -48 -24 -55 -7 -7 -12 -20 -12 -30 0 -10 -4 -18 -8
-18 -4 0 -14 -21 -21 -47 -14 -46 -23 -69 -43 -103 -4 -8 -11 -22 -14 -30 -15
-39 -104 -233 -115 -250 -5 -8 -12 -22 -15 -30 -12 -32 -30 -67 -63 -125 -19
-33 -44 -78 -55 -100 -12 -22 -36 -61 -54 -87 -17 -26 -32 -49 -32 -52 0 -8
-70 -109 -80 -116 -4 -3 -14 -18 -23 -35 -9 -16 -29 -43 -45 -60 -15 -16 -43
-50 -61 -75 -75 -104 -481 -514 -655 -662 -62 -52 -326 -317 -380 -381 -78
-92 -86 -113 -86 -221 0 -167 11 -179 173 -184 119 -5 322 13 342 28 6 5 33
16 60 25 51 18 125 60 137 79 12 18 39 -5 53 -47 23 -69 18 -67 220 -67 238 0
282 9 410 83 34 20 120 80 130 92 13 15 82 65 89 65 3 0 6 -18 6 -40 0 -46 34
-107 73 -133 43 -28 201 -22 303 11 62 20 210 110 227 139 4 7 14 13 21 13 21
0 242 229 266 276 8 15 22 35 30 44 14 13 15 7 11 -58 -2 -46 1 -78 8 -85 6
-6 11 -18 11 -27 0 -18 34 -50 55 -50 7 0 17 -4 20 -10 9 -15 124 -12 173 5
64 23 184 89 232 130 106 90 162 147 212 217 17 24 34 45 38 48 4 3 13 20 21
38 8 17 17 32 20 32 4 0 14 16 23 35 9 19 21 35 26 35 6 0 10 -28 10 -61 0
-69 21 -114 70 -149 22 -16 44 -20 105 -20 46 0 88 6 103 14 15 7 40 20 56 27
80 38 242 224 323 369 65 117 78 136 80 115 1 -11 5 -50 8 -88 6 -58 11 -72
39 -102 33 -35 34 -35 122 -35 85 0 90 1 156 41 71 42 199 163 225 213 8 16
24 39 35 50 11 12 26 35 34 53 7 17 17 33 22 35 10 3 93 174 113 230 13 37 39
52 39 23 0 -8 14 -29 30 -47 25 -26 40 -32 86 -36 143 -12 268 89 363 293 21
44 43 100 50 125 7 25 19 61 26 80 7 19 23 69 35 110 12 41 26 83 31 92 5 10
9 29 9 42 0 14 4 27 9 30 4 3 14 27 21 53 6 27 18 62 25 78 7 17 18 42 24 58
6 15 15 37 20 50 5 12 15 40 22 62 7 22 19 47 26 56 7 8 13 20 13 26 0 5 6 23
14 39 8 16 24 49 35 74 38 80 87 154 155 235 29 33 65 78 81 100 16 22 43 54
60 70 35 34 114 162 132 215 7 19 13 47 13 62 0 15 5 30 11 34 23 14 -16 142
-54 180 -31 31 -94 64 -120 64 -13 0 -27 4 -32 9 -12 11 -70 20 -210 31 -238
19 -261 21 -280 30 -11 4 -47 14 -80 21 -33 7 -64 16 -69 21 -6 4 -20 8 -32 8
-12 0 -27 7 -34 15 -7 8 -16 15 -21 15 -5 0 -31 10 -57 21 -26 12 -61 27 -78
35 -17 7 -37 20 -44 29 -7 8 -18 15 -25 15 -7 0 -27 13 -44 29 -18 17 -40 33
-50 36 -32 10 -311 275 -311 295 0 5 -12 22 -27 38 -28 30 -46 55 -71 105 -7
15 -18 27 -23 27 -5 0 -9 7 -9 15 0 8 -22 53 -50 101 -27 48 -50 91 -50 96 0
4 -4 16 -10 26 -5 9 -20 42 -33 72 -79 179 -142 307 -163 331 -8 8 -14 19 -14
23 0 6 -49 86 -60 96 -3 3 -18 23 -35 45 -62 84 -150 160 -245 210 -30 17 -61
19 -225 22 -108 1 -205 -2 -225 -8z"/>
</g>
</svg>
